<svg height="160" viewBox="0 0 160 160" width="160" xmlns="http://www.w3.org/2000/svg"><g fill="none" fill-rule="evenodd"><rect height="160" rx="80" width="160"/><path d="m134.185018 78.430293c6.656585 8.9465257 12.109048 27.877555-2.157591 42.931692-13.952094 14.721943-39.4667114 18.035983-54.0734541 16.162101-17.5910005-2.256346-29.5693159-13.344872-31.1764508-26.503441-1.5383279-12.6045864 7.2994395-20.0547672 1.7850501-27.3078011-6.463926-8.5019595-21.6053974-2.2100166-27.2859065-10.211223-5.3718606-7.5655118 7.2896099-27.1993701 17.8563989-36.5884906 21.0736176-18.7240255 53.7304018-20.8906698 67.1802044-.3410641 4.601222 7.0292722-.065859 11.9224579 6.350886 22.838481 6.623165 11.2679303 14.674566 9.8159435 21.520863 19.0197458" fill="#ffe0e0" opacity=".2"/><g transform="translate(2 41)"><path d="m56 28v22h22v11l22-22-22-22v11z" fill-rule="nonzero" stroke="#ff8080" stroke-linejoin="round" stroke-width="4"/><g fill="#ff8080"><path d="m74.5021988 85v-3.4219653h-6.2045467v-.0924856l1.4890912-1.2331406c3.6219041-2.9980732 4.5448304-4.5549133 4.5448304-6.3815029 0-2.9441233-2.4275288-4.8709056-6.2355693-4.8709056-3.6994609 0-6.1037228 2.0423892-6.0959858 5.3641618h4.0950195c-.0077557-1.3256262.8065911-2.0655105 2.0009663-2.0655105 1.1866195 0 2.031989.7321772 2.031989 1.9421965 0 1.1175337-.7212785 1.8420038-1.8923867 2.805395l-5.925342 4.8709056v3.0828516zm5.4910372 0v-7.105973c0-1.310212.8376138-2.1811176 1.9389208-2.1811176 1.0857957 0 1.8148299.7398844 1.8148299 1.9036609v7.3834297h3.2030972v-7.2292871c0-1.2254335.7057672-2.0578035 1.9078981-2.0578035 1.0547729 0 1.8458526.655106 1.8458526 1.9730251v7.3140655h3.2961654v-7.9614644c0-2.5664739-1.5356253-4.0308285-3.7537507-4.0308285-1.7450287 0-3.1022733.8863199-3.5908814 2.2427746h-.1240909c-.3800285-1.371869-1.5976708-2.2427746-3.2341199-2.2427746-1.6054265 0-2.8230687.8477842-3.3194325 2.2427746h-.1396023v-2.088632h-3.1488074v11.8381503z" fill-rule="nonzero"/><path d="m22 0c6.9427861 0 12.5710262 5.58748632 12.5710262 12.48 0 6.8925137-5.6282401 12.48-12.5710262 12.48l.076-.001 12.4950262.001c2.3918138 0 4.6899244.9022529 6.4326368 2.5169031l.2341567.2245774c1.7681435 1.7553405 2.7618323 4.1360932 2.7618323 6.6185195v10.764c.0310524 2.589514-2.0195612 4.7333346-4.6261009 4.836-1.2655101.0235607-2.4874021-.4590885-3.390684-1.3393254-.903282-.8802369-1.4120634-2.0841071-1.4118409-3.3406746v32.76h-25.14205245v-32.76c.00022251 1.2565675-.50855888 2.4604377-1.41184083 3.3406746s-2.12517391 1.3628861-3.39068404 1.3393254c-2.60653971-.1026654-4.65715329-2.246486-4.62610083-4.836v-10.764c0-5.1693853 4.22153614-9.36 9.4286257-9.36l12.49475565-.0002249c-6.9076883-.0407424-12.49475565-5.6125185-12.49475565-12.4797751 0-6.89251368 5.62824015-12.48 12.57102625-12.48z" fill-opacity=".198017" stroke="#ff8080" stroke-width="4"/><path d="m134 0c6.942786 0 12.571026 5.58748632 12.571026 12.48 0 6.8925137-5.62824 12.48-12.571026 12.48l.076-.001 12.495026.001c2.391814 0 4.689925.9022529 6.432637 2.5169031l.234157.2245774c1.768143 1.7553405 2.761832 4.1360932 2.761832 6.6185195v10.764c.031052 2.589514-2.019561 4.7333346-4.626101 4.836-1.26551.0235607-2.487402-.4590885-3.390684-1.3393254s-1.412063-2.0841071-1.411841-3.3406746v32.76h-25.142052v-32.76c.000222 1.2565675-.508559 2.4604377-1.411841 3.3406746s-2.125174 1.3628861-3.390684 1.3393254c-2.60654-.1026654-4.657153-2.246486-4.626101-4.836v-10.764c0-5.1693853 4.221536-9.36 9.428626-9.36l12.494755-.0002249c-6.907688-.0407424-12.494755-5.6125185-12.494755-12.4797751 0-6.89251368 5.62824-12.48 12.571026-12.48z" fill-opacity=".198017" stroke="#ff8080" stroke-width="4"/></g></g></g></svg>