<svg height="160" viewBox="0 0 160 160" width="160" xmlns="http://www.w3.org/2000/svg"><g fill="none" fill-rule="evenodd"><rect height="160" rx="80" width="160"/><path d="m83.2874508 29.2382454c8.846-7.033 27.5970002-13.712 42.5800002-1.334 14.654 12.105 18.04 36.102 16.239 50.138-2.169 16.904-13.116 29.1669996-26.159 31.7319996-12.492 2.457-19.9150002-5.359-27.0850002.456-8.405 6.816-2.106 20.717-10.018 26.749-7.481 5.704-27-4.786-36.351-14.093-18.65-18.56-20.927-49.4389996-.603-63.8469996 6.952-4.929 11.822-.877 22.622-7.839 11.147-7.187 9.676-14.727 18.775-21.962" fill="#ffe0e0" opacity=".2"/><path d="m29.7664508 105.982245 26.689 13.734c5.291 2.723 11.617 2.496 16.7-.597l46.1240002-28.0759996c12.81-7.795 10.077-27.132-4.39-31.075l-26.6940002-7.275c-3.91-1.067-8.072-.707-11.742 1.013l-46.12 21.616c-12.845 6.02-13.181 24.169-.567 30.6599996" fill="#ff8080" fill-opacity=".198017" stroke="#ff8080" stroke-width="4"/><path d="m40.2414508 88.9042454 25.473 13.1079996c1.01.521 2.218.477 3.188-.113l35.9950002-21.9089996c2.446-1.489 1.924-5.18-.838-5.933l-24.2180002-7.863c-1.723-.56-3.595-.434-5.226.352l-34.266 16.505c-2.452 1.15-2.516 4.613-.108 5.853" fill="#ffe0e0"/><path d="m67.1024508 104.875245c-1.758 0-3.519-.338-5.188-1.019-.045-.018-.088-.037-.132-.059l-23.322-11.1279996c-1.246-.593-1.774-2.086-1.179-3.332.594-1.247 2.085-1.775 3.333-1.179l23.252 11.094c2.316.9249996 4.909.8159996 7.137-.299l37.2120002-22.636c1.176-.717 2.716-.344 3.434.837.718 1.178.343 2.717-.837 3.434l-37.2930002 22.6869996c-.052.032-.105.061-.159.089-1.962 1.005-4.107 1.511-6.258 1.511" fill="#ff8080"/><g fill="#fff" stroke="#ff8080" stroke-width="4"><path d="m130.505451 56.9312454c0 4.926-3.993 8.918-8.919 8.918s-8.919-3.992-8.919-8.918 3.993-8.919 8.919-8.919 8.919 3.993 8.919 8.919"/><path d="m113.723451 62.5852454c0 4.926-3.993 8.919-8.917 8.919-4.9260002 0-8.9190002-3.993-8.9190002-8.919 0-4.925 3.993-8.919 8.9190002-8.919 4.924 0 8.917 3.994 8.917 8.919"/><path d="m134.588451 79.4532454c0 7.18-5.822 13.002-13.002 13.002-7.181 0-13.002-5.822-13.002-13.002 0-7.181 5.821-13.002 13.002-13.002 7.18 0 13.002 5.821 13.002 13.002"/></g></g></svg>