<svg height="160" viewBox="0 0 160 160" width="160" xmlns="http://www.w3.org/2000/svg"><g fill="none" fill-rule="evenodd"><rect height="160" rx="80" width="160"/><path d="m70.0300355 26.0946175c8.868-9.775 28.971-21.38500004 47.8379995-11.056 18.452 10.102 26.071 35.901 26.261 51.842.228 19.196-10.185 35.2329995-24.496 41.0059995-13.708 5.529-23.3219995-1.452-30.4929995 6.598-8.405 9.434.903 23.404-7.07 31.86-7.54 7.995-31.226.776-43.252-7.421-23.982-16.348-31.43900001-50.0129995-10.785-70.5329995 7.065-7.019 13.202-3.63 24.287-13.765 11.441-10.462 8.588-18.476 17.71-28.531" fill="#ffe0e0" opacity=".2"/><path d="m111.539035 115.091617c.254-.249.51-.501.768-.756l21.459-21.1009995c2.017-1.982 2.044-5.224.062-7.241-1.983-2.016-5.225-2.043-7.241-.061l-9.349 9.193s-10.599 8.7779995-8.634.433l11.888-50.468c.528-2.24-.86-4.484-3.101-5.012-2.24-.527-4.484.861-5.012 3.101l-6.565 27.867c-.316 1.344-1.663 2.177-3.007 1.861-1.343-.317-2.176-1.664-1.86-3.007l8.409-35.698c.528-2.24-.861-4.484-3.101-5.012s-4.485.861-5.012 3.101l-8.4089995 35.697c-.317 1.345-1.663 2.178-3.008 1.861-1.344-.316-2.177-1.663-1.86-3.007l7.262-30.83c.528-2.24-.86-4.484-3.101-5.012-2.24-.528-4.485.861-5.012 3.101l-7.263 30.829c-.316 1.345-1.663 2.178-3.006 1.861-1.345-.317-2.178-1.663-1.861-3.007l5.241-22.253c.529-2.24-.86-4.484-3.1-5.012s-4.485.861-5.012 3.101l-10.348 43.926c-.633 2.689-.974 5.437-1.009 8.199-.064 5.068-.279 13.6869995-.995 18.4869995-.658 4.407-1.743 8.618-2.469 11.176-.39 1.369.448 2.783 1.834 3.11l38.415 9.049c1.149.271 2.329-.295 2.8329995-1.364 1.731-3.674 5.95-11.985 10.715-16.67z" fill="#ff8080" fill-opacity=".198017" stroke="#ff8080" stroke-width="4"/><path d="m111.539035 115.091617c.254-.249.51-.501.768-.756l21.459-21.1009995c2.017-1.982 2.044-5.224.062-7.241-1.983-2.016-5.225-2.043-7.241-.061l-9.349 9.193s-10.599 8.7779995-8.634.433l11.888-50.468c.528-2.24-.86-4.484-3.101-5.012-2.24-.527-4.484.861-5.012 3.101l-6.565 27.867c-.316 1.344-1.663 2.177-3.007 1.861-1.343-.317-2.176-1.664-1.86-3.007l8.409-35.698c.528-2.24-.861-4.484-3.101-5.012s-4.485.861-5.012 3.101l-8.4089995 35.697c-.317 1.345-1.663 2.178-3.008 1.861-1.344-.316-2.177-1.663-1.86-3.007l7.262-30.83c.528-2.24-.86-4.484-3.101-5.012-2.24-.528-4.485.861-5.012 3.101l-7.263 30.829c-.316 1.345-1.663 2.178-3.006 1.861-1.345-.317-2.178-1.663-1.861-3.007l5.241-22.253c.529-2.24-.86-4.484-3.1-5.012s-4.485.861-5.012 3.101l-10.348 43.926c-.633 2.689-.974 5.437-1.009 8.199-.064 5.068-.279 13.6869995-.995 18.4869995-.658 4.407-1.743 8.618-2.469 11.176-.39 1.369.448 2.783 1.834 3.11l38.415 9.049c1.149.271 2.329-.295 2.8329995-1.364 1.731-3.674 5.95-11.985 10.715-16.67z" stroke="#ff8080" stroke-width="4"/><path d="m99.1300355 136.143617-42.119-9.922c-1.492-.351-2.416-1.845-2.065-3.336l.093-.395c.351-1.491 1.845-2.415 3.336-2.064l42.1199995 9.922c1.491.351 2.415 1.845 2.064 3.336l-.093.395c-.351 1.491-1.845 2.415-3.3359995 2.064" fill="#fff"/><g stroke="#ff8080" stroke-width="4"><path d="m99.1300355 136.143617-42.119-9.922c-1.492-.351-2.416-1.845-2.065-3.336l.093-.395c.351-1.491 1.845-2.415 3.336-2.064l42.1199995 9.922c1.491.351 2.415 1.845 2.064 3.336l-.093.395c-.351 1.491-1.845 2.415-3.3359995 2.064z"/><path d="m91.9820355 104.211617c.19-.301.381-.604.575-.912l16.0489995-25.4589995c1.509-2.392.792-5.554-1.6-7.061v-.001c-2.392-1.508-5.554-.791-7.0619995 1.601l-6.992 11.092s-8.305 10.974-8.305 2.4v-51.849c0-2.301-1.866-4.167-4.168-4.167-2.301 0-4.167 1.866-4.167 4.167v28.63c0 1.381-1.12 2.501-2.501 2.501-1.38 0-2.5-1.12-2.5-2.501v-36.674c0-2.302-1.866-4.168-4.168-4.168-2.301 0-4.168 1.866-4.168 4.168v36.674c0 1.381-1.119 2.501-2.5 2.501-1.38 0-2.501-1.12-2.501-2.501v-31.673c0-2.302-1.865-4.168-4.167-4.168-2.301 0-4.167 1.866-4.167 4.168v31.673c0 1.381-1.121 2.501-2.501 2.501-1.381 0-2.5-1.12-2.5-2.501v-22.862c0-2.301-1.867-4.167-4.168-4.167-2.302 0-4.167 1.866-4.167 4.167v45.129c0 2.762.297 5.516.896 8.212 1.101 4.947 2.867 13.3849995 3.271 18.2219995.37 4.441.28 8.789.159 11.444-.065 1.422 1.075 2.607 2.498 2.607h39.467c1.181 0 2.2-.821 2.445-1.977.842-3.973 3.043-13.03 6.606-18.683z" fill="#fff"/><path d="m84.7310355 127.548617h-43.272c-1.532 0-2.775-1.243-2.775-2.774v-.407c0-1.531 1.243-2.773 2.775-2.773h43.272c1.533 0 2.774 1.242 2.774 2.773v.407c0 1.531-1.241 2.774-2.774 2.774" fill="#fff"/></g></g></svg>