<svg height="160" viewBox="0 0 160 160" width="160" xmlns="http://www.w3.org/2000/svg"><g fill="none" fill-rule="evenodd"><path d="m0 0h160v160h-160z"/><path d="m70.0299713 26.0936387c8.869-9.774 28.971-21.38399999 47.8389997-11.055 18.451 10.102 26.071 35.902 26.26 51.842.228 19.197-10.184 35.2330003-24.496 41.0060003-13.708 5.529-23.3209997-1.451-30.4919997 6.598-8.406 9.434.902 23.403-7.071 31.859-7.539 7.996-31.226.777-43.251-7.421-23.983-16.347-31.44000001-50.0110003-10.786-70.5320003 7.065-7.019 13.202-3.63 24.287-13.766 11.441-10.461 8.588-18.475 17.71-28.531" fill="#ffe0e0" opacity=".2"/><path d="m96.4119713 57.3756387h-34.405c-3.265 0-5.912-2.647-5.912-5.912v-1.253c0-3.264 2.647-5.912 5.912-5.912h34.405c3.265 0 5.9119997 2.648 5.9119997 5.912v1.253c0 3.265-2.6469997 5.912-5.9119997 5.912" fill="#fff" stroke="#ff8080" stroke-width="4"/><path d="m96.4119713 57.3756387h-34.405c-3.265 0-5.912-2.647-5.912-5.912v-1.253c0-3.264 2.647-5.912 5.912-5.912h34.405c3.265 0 5.9119997 2.648 5.9119997 5.912v1.253c0 3.265-2.6469997 5.912-5.9119997 5.912z" stroke="#ff8080" stroke-width="5"/><path d="m96.0819713 17.1936387c2.034 0 3.683 1.648 3.683 3.682s-1.649 3.683-3.683 3.683h-6.3932366l.0002366 21.351h-19.245l-.0002366-21.351h-7.0437634l-5.576 7.729c-.719.999-1.846 1.529-2.989 1.529-.747 0-1.5-.227-2.152-.696-1.649-1.191-2.022-3.493-.832-5.142l6.679-9.257c.692-.96 1.803-1.528 2.986-1.528zm-11.393 8.419h-9.245v15.297h9.245z" fill="#ff8080"/><path d="m95.0239713 64.3476387h-.932v-6.972h-29.2v6.972h-.932c-11.778 0-20.802 10.471-19.065 22.12l5.994 40.1960003c1.408 9.444 9.518 16.433 19.066 16.433h18.722c9.485 0 17.5599997-6.9 19.0399997-16.269l6.347-40.1970003c1.847-11.7-7.196-22.283-19.0399997-22.283" fill="#ff8080" fill-opacity=".198017" stroke="#ff8080" stroke-width="4"/><path d="m46.5369713 90.7736387h65.8729997l-4.743966 30.9570003h-56.6490524z" stroke="#ff8080" stroke-width="4"/><path d="m77.7004475 115.881059c-2.7374698-.502103-4.965487-2.703369-5.5444866-5.478952-.2094788-1.005055-.2069651-2.015208.0016759-2.989678l.8479704-2.088271c.0293271-.056922.2429955-.546281.287405-.624443l4.1694673-7.7736711c.307515-.5717684.8957316-.9260439 1.5375748-.9260439.6418433 0 1.2308978.3542755 1.5375749.9260439l4.5523946 8.4847711c.0385441.068816.0837916.154624.1282011.242131l.6250849 1.759483c.1047394.48851.1566902.986365.1566902 1.491866 0 2.11036-.9166795 4.096682-2.5154222 5.449216-1.2677661 1.073871-2.8564537 1.646489-4.4962543 1.646489-.4281748 0-.8588633-.039081-1.287876-.118941z" fill="#ff8080"/></g></svg>